<svg width="201" height="126" viewBox="0 0 201 126" fill="none" xmlns="http://www.w3.org/2000/svg">
<path d="M38.3689 0.942277L186.886 47.9011C197.442 51.2432 203.296 62.5069 199.964 73.0663L187.69 111.913C184.393 122.362 173.331 128.205 162.87 125.097L162.533 124.993L14.0129 78.0292C3.45668 74.6871 -2.39675 63.4235 0.93517 52.864L13.209 14.0173C16.506 3.56863 27.5677 -2.27426 38.029 0.833662L38.3662 0.937028C38.3675 0.937448 38.3689 0.937868 38.3689 0.942277Z" fill="#F6CF98"/>
<path d="M54.8669 41.0839L53.6938 44.6945L60.4698 46.8961L59.3369 50.3831L52.5608 48.1814L50.3511 54.9822L46.1717 53.6242L51.8607 36.1153L63.3849 39.8598L62.2118 43.4704L54.8669 41.0839Z" fill="#A54E34"/>
<path d="M61.0345 58.4534L66.7235 40.9445L70.9771 42.3266L65.2881 59.8355L61.0345 58.4534Z" fill="#A54E34"/>
<path d="M80.0766 64.6406L78.2523 57.2126L72.5587 62.1978L67.5138 60.5586L76.652 53.3024L73.6974 43.2105L78.7917 44.8657L80.2883 51.367L85.271 46.971L90.1923 48.57L81.969 55.0299L85.2947 66.336L80.0766 64.6406Z" fill="#A54E34"/>
<path d="M112.275 75.1025L108.096 73.7445L108.482 60.7739L108.408 60.7498L101.097 71.4705L96.8931 70.1045L97.6113 50.9806L102.162 52.4591L101.147 65.0069L101.221 65.031L108.122 54.3956L112.524 55.8259L111.88 68.4942L111.954 68.5183L118.558 57.7865L122.96 59.2167L112.275 75.1025Z" fill="#A54E34"/>
<path d="M119.694 77.5131L125.383 60.0042L129.637 61.3863L123.948 78.8951L119.694 77.5131Z" fill="#A54E34"/>
<path d="M136.872 67.7289L135.699 71.3394L142.475 73.5411L141.342 77.028L134.566 74.8264L132.356 81.6271L128.177 80.2692L133.865 62.7603L145.39 66.5048L144.217 70.1153L136.872 67.7289Z" fill="#A54E34"/>
<path d="M143.039 85.0984L148.728 67.5895L152.982 68.9716L147.293 86.4804L143.039 85.0984Z" fill="#A54E34"/>
</svg>
