<svg width="229" height="128" viewBox="0 0 229 128" fill="none" xmlns="http://www.w3.org/2000/svg">
<path d="M32.6784 0.267098L212.208 29.603C223.108 31.3864 230.501 41.666 228.723 52.5669L219.27 110.461C217.511 121.248 207.428 128.601 196.655 127.03L196.311 126.977C196.31 126.977 196.309 126.977 196.309 126.974L16.779 97.6386C5.87917 95.8552 -1.51377 85.5755 0.263827 74.6747L9.71711 16.7804C11.4761 5.99345 21.5596 -1.35952 32.3324 0.211277L32.6764 0.264446C32.6772 0.26457 32.678 0.264694 32.6784 0.267098Z" fill="#DF96AE"/>
<path d="M73.6746 52.5086L75.8097 39.6911L75.7329 39.6789L68.9868 51.7661L65.9128 51.2793L63.3602 37.7192L63.2834 37.7071L61.3532 50.5571L57.2289 49.9039L60.1014 31.7675L66.3262 32.7534L68.6084 45.0364L68.7109 45.0527L74.4978 34.0477L80.825 35.0498L77.9525 53.1861L73.6746 52.5086Z" fill="#844461"/>
<path d="M94.6287 55.8274L93.7838 52.0436L86.7649 50.9319L84.8689 54.2816L80.1043 53.527L90.5848 36.5956L94.8372 37.2691L99.4958 56.5983L94.6287 55.8274ZM91.8673 41.7617L88.576 47.6213L93.1357 48.3435L91.8673 41.7617Z" fill="#844461"/>
<path d="M113.175 58.7648L107.753 45.7482L107.676 45.736L105.9 57.6126L101.648 56.9391L104.52 38.8027L109.515 39.5939L114.916 52.5809L114.993 52.593L116.765 40.7421L121.017 41.4156L118.145 59.5519L113.175 58.7648Z" fill="#844461"/>
<path d="M134.821 62.1932L133.976 58.4094L126.957 57.2977L125.061 60.6474L120.296 59.8927L130.777 42.9614L135.029 43.6349L139.688 62.9641L134.821 62.1932ZM132.059 48.1275L128.768 53.9871L133.328 54.7093L132.059 48.1275Z" fill="#844461"/>
<path d="M157.666 64.6823C156.705 65.0028 155.608 65.2142 154.375 65.3165C153.142 65.4188 151.825 65.3591 150.425 65.1373C148.973 64.9074 147.674 64.4652 146.525 63.8107C145.377 63.1562 144.43 62.3409 143.683 61.3648C142.936 60.3887 142.408 59.2766 142.098 58.0283C141.788 56.7801 141.746 55.4387 141.974 54.0042C142.203 52.5526 142.664 51.2775 143.354 50.179C144.044 49.0804 144.899 48.1873 145.918 47.4997C146.938 46.8121 148.08 46.3409 149.346 46.0863C150.612 45.8316 151.936 45.8138 153.319 46.0329C154.754 46.2601 156.052 46.6888 157.212 47.319C158.373 47.9493 159.279 48.6924 159.931 49.5484L156.666 52.2611C156.317 51.6982 155.818 51.2033 155.168 50.7765C154.518 50.3497 153.749 50.0659 152.861 49.9253C152.092 49.8036 151.361 49.8322 150.667 50.0112C149.974 50.1902 149.348 50.4937 148.79 50.9218C148.232 51.3498 147.766 51.8887 147.392 52.5384C147.018 53.1882 146.765 53.9229 146.636 54.7426C146.503 55.5794 146.501 56.3668 146.629 57.1049C146.757 57.8429 147.016 58.501 147.406 59.0792C147.796 59.6574 148.314 60.1421 148.961 60.5334C149.608 60.9247 150.376 61.1907 151.264 61.3314C151.776 61.4125 152.269 61.4512 152.742 61.4474C153.216 61.4436 153.662 61.3874 154.082 61.2788L154.605 57.9743L151.147 57.4266L151.707 53.8915L159.187 55.0762L157.666 64.6823Z" fill="#844461"/>
<path d="M161.718 66.4533L164.59 48.317L176.784 50.2482L176.195 53.9626L168.229 52.7008L167.689 56.1077L175.22 57.3005L174.664 60.81L167.133 59.6172L166.537 63.3828L174.965 64.7176L174.372 68.4576L161.718 66.4533Z" fill="#844461"/>
<path d="M50.5209 67.2226L49.3037 74.9075L44.9234 74.2137L46.1405 66.5288L40.9819 54.9982L46.2845 55.838L49.0896 63.1621L54.0206 57.0633L59.1439 57.8747L50.5209 67.2226Z" fill="#844461"/>
<path d="M77.8029 70.0469C77.5757 71.4814 77.1205 72.7529 76.4373 73.8613C75.7541 74.9698 74.9057 75.877 73.8924 76.5831C72.879 77.2891 71.7295 77.7766 70.444 78.0457C69.1585 78.3147 67.807 78.337 66.3895 78.1125C64.9721 77.888 63.6979 77.4499 62.567 76.7981C61.436 76.1463 60.4978 75.3281 59.7522 74.3435C59.0066 73.3588 58.4801 72.2338 58.1729 70.9685C57.8656 69.7032 57.8256 68.3533 58.0528 66.9188C58.2827 65.4672 58.7379 64.1957 59.4184 63.1043C60.099 62.013 60.9439 61.1271 61.9532 60.4466C62.9625 59.7662 64.1043 59.2993 65.3786 59.046C66.6529 58.7927 67.9988 58.7783 69.4162 59.0028C70.8337 59.2273 72.1135 59.6575 73.2556 60.2936C74.3978 60.9297 75.3437 61.7272 76.0934 62.6862C76.8431 63.6452 77.3729 64.7489 77.6829 65.9971C77.9928 67.2454 78.0329 68.5953 77.8029 70.0469ZM73.1152 69.3044C73.2396 68.5188 73.2278 67.7642 73.0798 67.0406C72.9319 66.3169 72.6701 65.6759 72.2947 65.1175C71.9192 64.5591 71.4336 64.0883 70.8378 63.7051C70.242 63.3219 69.5599 63.0694 68.7914 62.9477C68.0229 62.826 67.3004 62.8559 66.6239 63.0377C65.9474 63.2194 65.3401 63.517 64.8019 63.9307C64.2637 64.3444 63.8167 64.8732 63.4609 65.5171C63.1051 66.1609 62.865 66.8757 62.7406 67.6612C62.6107 68.481 62.6191 69.2569 62.7657 69.9891C62.9124 70.7213 63.1727 71.3709 63.5468 71.9378C63.921 72.5048 64.4016 72.9792 64.9889 73.361C65.5761 73.7429 66.254 73.9947 67.0225 74.1164C67.791 74.2381 68.5134 74.2081 69.1899 74.0264C69.8664 73.8447 70.4745 73.5427 71.014 73.1205C71.5535 72.6983 72.0062 72.1617 72.3719 71.5106C72.7376 70.8595 72.9853 70.1241 73.1152 69.3044Z" fill="#844461"/>
<path d="M96.3426 75.3466C96.1695 76.4396 95.8284 77.4053 95.3192 78.2437C94.81 79.0821 94.1632 79.7674 93.3786 80.2996C92.5941 80.8318 91.691 81.2009 90.6693 81.4067C89.6476 81.6125 88.5476 81.6221 87.3693 81.4354C86.1739 81.2461 85.1264 80.8964 84.2268 80.3863C83.3273 79.8762 82.5952 79.2482 82.0306 78.5023C81.466 77.7564 81.0754 76.9068 80.8588 75.9534C80.6422 75 80.6204 73.9768 80.7935 72.8839L82.5828 61.5871L86.9375 62.2768L85.2051 73.215C85.1267 73.7102 85.1163 74.19 85.1741 74.6543C85.2318 75.1186 85.3653 75.5468 85.5746 75.9388C85.7838 76.3308 86.09 76.6638 86.493 76.9377C86.896 77.2116 87.4049 77.3972 88.0197 77.4946C88.6345 77.5919 89.1759 77.5727 89.6438 77.4367C90.1117 77.3007 90.51 77.0794 90.8387 76.7725C91.1674 76.4657 91.4267 76.0998 91.6166 75.6747C91.8064 75.2496 91.9406 74.7895 92.019 74.2942L93.7515 63.356L98.1318 64.0498L96.3426 75.3466Z" fill="#844461"/>
<path d="M109.143 84.3852L106.364 76.5663L104.878 76.331L103.738 83.5291L99.4347 82.8475L102.307 64.7112L109.224 65.8066C110.095 65.9446 110.93 66.1688 111.73 66.4793C112.53 66.7898 113.225 67.2106 113.814 67.7416C114.404 68.2727 114.84 68.9195 115.122 69.6818C115.404 70.4442 115.462 71.3463 115.297 72.388C115.103 73.6176 114.606 74.5981 113.807 75.3294C113.009 76.0607 111.992 76.5123 110.757 76.6843L114.267 85.1966L109.143 84.3852ZM110.956 71.7792C111.024 71.3523 110.989 70.9922 110.851 70.6991C110.714 70.406 110.516 70.1646 110.257 69.9748C109.998 69.785 109.698 69.6368 109.356 69.5301C109.014 69.4234 108.681 69.3444 108.356 69.293L106.025 68.9238L105.356 73.1505L107.431 73.4791C107.789 73.5359 108.161 73.5642 108.546 73.5639C108.932 73.5636 109.29 73.511 109.622 73.406C109.954 73.301 110.241 73.1189 110.483 72.8597C110.725 72.6004 110.883 72.2403 110.956 71.7792Z" fill="#844461"/>
<path d="M140.549 89.3594L142.684 76.5418L142.607 76.5297L135.861 88.6169L132.787 88.13L130.235 74.57L130.158 74.5578L128.228 87.4078L124.103 86.7546L126.976 68.6183L133.201 69.6042L135.483 81.8872L135.585 81.9034L141.372 70.8984L147.699 71.9006L144.827 90.0369L140.549 89.3594Z" fill="#844461"/>
<path d="M161.503 92.6781L160.658 88.8943L153.639 87.7826L151.743 91.1323L146.979 90.3777L157.459 73.4463L161.711 74.1198L166.37 93.449L161.503 92.6781ZM158.742 78.6124L155.45 84.472L160.01 85.1942L158.742 78.6124Z" fill="#844461"/>
<path d="M184.417 93.734C183.469 94.5291 182.363 95.1023 181.099 95.4536C179.835 95.8049 178.435 95.8588 176.898 95.6154C175.498 95.3936 174.241 94.9582 173.127 94.3091C172.013 93.66 171.088 92.8438 170.35 91.8605C169.613 90.8773 169.091 89.7572 168.782 88.5004C168.473 87.2436 168.431 85.9065 168.656 84.4891C168.886 83.0375 169.346 81.7624 170.036 80.6639C170.727 79.5653 171.581 78.6722 172.601 77.9846C173.62 77.297 174.762 76.8259 176.028 76.5712C177.294 76.3165 178.618 76.2987 180.002 76.5178C181.283 76.7207 182.506 77.1464 183.673 77.7951C184.839 78.4437 185.738 79.2644 186.368 80.2571L182.926 82.7579C182.605 82.1295 182.134 81.6258 181.511 81.2471C180.888 80.8684 180.227 80.6236 179.527 80.5127C178.758 80.391 178.031 80.4203 177.346 80.6006C176.661 80.781 176.049 81.0823 175.509 81.5045C174.97 81.9267 174.519 82.4548 174.156 83.0888C173.793 83.7228 173.548 84.4411 173.42 85.2437C173.291 86.0635 173.3 86.8352 173.448 87.5588C173.596 88.2825 173.857 88.9235 174.233 89.4819C174.608 90.0403 175.09 90.5062 175.679 90.8795C176.267 91.2528 176.937 91.499 177.689 91.618C178.56 91.7559 179.347 91.7055 180.05 91.4667C180.753 91.228 181.344 90.8665 181.823 90.3822L184.417 93.734Z" fill="#844461"/>
</svg>
